<mxfile host="65bd71144e">
    <diagram id="TEgqWO0EpbkLvY70SoFq" name="ページ1">
        <mxGraphModel dx="793" dy="787" grid="1" gridSize="10" guides="1" tooltips="1" connect="1" arrows="1" fold="1" page="1" pageScale="1" pageWidth="1169" pageHeight="827" math="0" shadow="0">
            <root>
                <mxCell id="0"/>
                <mxCell id="1" parent="0"/>
                <mxCell id="3" value="users" style="swimlane;whiteSpace=wrap;html=1;startSize=30;" vertex="1" parent="1">
                    <mxGeometry x="40" y="61" width="450" height="150" as="geometry"/>
                </mxCell>
                <mxCell id="7" value="・&lt;b&gt;ユーザID(user_id)：INTEGER＜PRIMARY KEY＞&lt;/b&gt;&lt;div&gt;・ユーザ名(username)：TEXT＜NOT NULL＞&lt;/div&gt;&lt;div&gt;・パスワード(password)：TEXT＜NOT NULL＞&lt;/div&gt;&lt;div&gt;・氏名(name)：TEXT＜NOT NULL＞&lt;/div&gt;&lt;div&gt;・ユーザ種別(role)：TEXT＜NOT NULL＞ 【選択式】&lt;/div&gt;&lt;div&gt;・登録日時(created_at)：DATETIME&lt;span style=&quot;background-color: transparent;&quot;&gt;＜DEFAULT CURRENT_TIMESTAMP＞&lt;/span&gt;&lt;/div&gt;" style="text;html=1;align=left;verticalAlign=top;whiteSpace=wrap;rounded=0;" vertex="1" parent="3">
                    <mxGeometry y="30" width="450" height="120" as="geometry"/>
                </mxCell>
                <mxCell id="5" value="reports" style="swimlane;whiteSpace=wrap;html=1;startSize=30;" vertex="1" parent="1">
                    <mxGeometry x="40" y="301" width="450" height="240" as="geometry"/>
                </mxCell>
                <mxCell id="8" value="・&lt;b&gt;日報ID(report_id)：INTEGER&lt;span style=&quot;color: rgb(0, 0, 0);&quot;&gt;＜PRIMARY KEY＞&lt;/span&gt;&lt;/b&gt;&lt;div&gt;&lt;div&gt;・&lt;u&gt;ユーザID(user_id)：INTEGER＜FOREIGN KEY＞ ⇒ users(user_id)&lt;/u&gt;&lt;/div&gt;&lt;div&gt;・作業日(report_date)：DATE＜NOT NULL＞&lt;/div&gt;&lt;div&gt;・体調記録(condition)：TEXT&lt;span style=&quot;color: rgb(63, 63, 63); background-color: transparent;&quot;&gt;＜NOT NULL＞&lt;/span&gt;&lt;span style=&quot;color: rgb(63, 63, 63); background-color: transparent;&quot;&gt;&amp;nbsp;&lt;/span&gt;&lt;span style=&quot;color: rgb(63, 63, 63); background-color: transparent;&quot;&gt;【選択式】&lt;/span&gt;&lt;/div&gt;&lt;div&gt;・出勤時間(start_time)：TIME&lt;span style=&quot;color: rgb(63, 63, 63); background-color: transparent;&quot;&gt;＜NOT NULL＞&lt;/span&gt;&lt;/div&gt;&lt;div&gt;・退勤時間(end_time)：TIME&lt;span style=&quot;color: rgb(63, 63, 63); background-color: transparent;&quot;&gt;＜NOT NULL＞&lt;/span&gt;&lt;/div&gt;&lt;div&gt;・作業時間(work_time)：INTEGER&lt;span style=&quot;color: rgb(63, 63, 63); background-color: transparent;&quot;&gt;＜NOT NULL＞&lt;/span&gt;&lt;/div&gt;&lt;div&gt;・作業内容(work_detail)：TEXT&lt;span style=&quot;color: rgb(63, 63, 63); background-color: transparent;&quot;&gt;＜NOT NULL＞&lt;/span&gt;&lt;span style=&quot;color: rgb(63, 63, 63); background-color: transparent;&quot;&gt;&amp;nbsp;&lt;/span&gt;&lt;span style=&quot;color: rgb(63, 63, 63); background-color: transparent;&quot;&gt;【選択式】&lt;/span&gt;&lt;/div&gt;&lt;div&gt;・利用者コメント(user_comment)：TEXT&lt;/div&gt;&lt;div&gt;・職員コメント(staff_comment)：TEXT&lt;/div&gt;&lt;div&gt;・登録日時(created_at)：DATETIME&lt;span style=&quot;color: rgb(63, 63, 63); background-color: transparent;&quot;&gt;＜&lt;span style=&quot;color: rgb(63, 63, 63);&quot;&gt;DEFAULT CURRENT_TIMESTAMP&lt;/span&gt;＞&lt;/span&gt;&lt;/div&gt;&lt;div&gt;・最終更新日時(updated_at)：DATETIME&lt;span style=&quot;color: rgb(63, 63, 63); background-color: transparent;&quot;&gt;＜&lt;span style=&quot;color: rgb(63, 63, 63);&quot;&gt;DEFAULT CURRENT_TIMESTAMP&lt;/span&gt;＞&lt;/span&gt;&lt;/div&gt;&lt;/div&gt;" style="text;html=1;align=left;verticalAlign=top;whiteSpace=wrap;rounded=0;" vertex="1" parent="5">
                    <mxGeometry y="30" width="450" height="210" as="geometry"/>
                </mxCell>
                <mxCell id="6" value="report_tasks" style="swimlane;whiteSpace=wrap;html=1;startSize=30;" vertex="1" parent="1">
                    <mxGeometry x="40" y="631" width="450" height="130" as="geometry"/>
                </mxCell>
                <mxCell id="9" value="・&lt;b&gt;作業ID(task_id)：INTEGER＜PRIMARY KEY＞&lt;/b&gt;&lt;div&gt;・&lt;u&gt;日報ID(report_id)：INTEGER＜FOREIGN KEY＞ ⇒ reports(report_id)&lt;/u&gt;&lt;/div&gt;&lt;div&gt;・作業の並び順(task_order)：INTEGER＜NOT NULL＞&lt;/div&gt;&lt;div&gt;・作業名(task_name)：TEXT＜NOT NULL＞&lt;span style=&quot;color: rgb(63, 63, 63); background-color: transparent;&quot;&gt;&amp;nbsp;&lt;/span&gt;&lt;span style=&quot;color: rgb(63, 63, 63); background-color: transparent;&quot;&gt;【選択式】&lt;/span&gt;&lt;/div&gt;&lt;div&gt;・作業時間(task_duration)：INTEGER＜NOT NULL＞&lt;/div&gt;" style="text;html=1;align=left;verticalAlign=top;whiteSpace=wrap;rounded=0;" vertex="1" parent="6">
                    <mxGeometry y="30" width="450" height="100" as="geometry"/>
                </mxCell>
                <mxCell id="12" style="edgeStyle=none;html=1;exitX=0.5;exitY=1;exitDx=0;exitDy=0;endArrow=ERzeroToMany;endFill=0;startArrow=ERmandOne;startFill=0;endSize=10;startSize=10;" edge="1" parent="1" source="7" target="5">
                    <mxGeometry relative="1" as="geometry"/>
                </mxCell>
                <mxCell id="13" style="edgeStyle=none;html=1;exitX=0.5;exitY=1;exitDx=0;exitDy=0;entryX=0.5;entryY=0;entryDx=0;entryDy=0;endArrow=ERzeroToMany;endFill=0;startArrow=ERmandOne;startFill=0;startSize=10;endSize=10;" edge="1" parent="1" source="8" target="6">
                    <mxGeometry relative="1" as="geometry"/>
                </mxCell>
                <mxCell id="15" value="【業務日報アプリ】ER図" style="text;html=1;align=center;verticalAlign=middle;whiteSpace=wrap;rounded=0;fillColor=#0050ef;fontColor=#ffffff;strokeColor=#001DBC;" vertex="1" parent="1">
                    <mxGeometry width="160" height="30" as="geometry"/>
                </mxCell>
            </root>
        </mxGraphModel>
    </diagram>
</mxfile>